<svg width="347" height="290" viewBox="0 0 347 290" fill="none" xmlns="http://www.w3.org/2000/svg">
<line x1="18.0995" y1="0.273972" x2="18.0995" y2="289.589" stroke="black" stroke-opacity="0.03"/>
<line x1="35.6991" y1="0.273972" x2="35.6991" y2="289.589" stroke="black" stroke-opacity="0.03"/>
<line x1="53.2986" y1="0.273972" x2="53.2986" y2="289.589" stroke="black" stroke-opacity="0.03"/>
<line x1="70.8981" y1="0.273972" x2="70.8981" y2="289.589" stroke="black" stroke-opacity="0.03"/>
<line x1="88.4977" y1="0.273972" x2="88.4977" y2="289.589" stroke="black" stroke-opacity="0.03"/>
<line x1="106.097" y1="0.273972" x2="106.097" y2="289.589" stroke="black" stroke-opacity="0.03"/>
<line x1="123.697" y1="0.273972" x2="123.697" y2="289.589" stroke="black" stroke-opacity="0.03"/>
<line x1="141.296" y1="0.273972" x2="141.296" y2="289.589" stroke="black" stroke-opacity="0.03"/>
<line x1="158.896" y1="0.273972" x2="158.896" y2="289.589" stroke="black" stroke-opacity="0.03"/>
<line x1="176.495" y1="0.273972" x2="176.495" y2="289.589" stroke="black" stroke-opacity="0.03"/>
<line x1="194.095" y1="0.273972" x2="194.095" y2="289.589" stroke="black" stroke-opacity="0.03"/>
<line x1="211.694" y1="0.273972" x2="211.694" y2="289.589" stroke="black" stroke-opacity="0.03"/>
<line x1="229.294" y1="0.273972" x2="229.294" y2="289.589" stroke="black" stroke-opacity="0.03"/>
<line x1="246.893" y1="0.273972" x2="246.893" y2="289.589" stroke="black" stroke-opacity="0.03"/>
<line x1="264.493" y1="0.273972" x2="264.493" y2="289.589" stroke="black" stroke-opacity="0.03"/>
<line x1="282.092" y1="0.273972" x2="282.092" y2="289.589" stroke="black" stroke-opacity="0.03"/>
<line x1="299.692" y1="0.273972" x2="299.692" y2="289.589" stroke="black" stroke-opacity="0.03"/>
<line x1="317.292" y1="0.273972" x2="317.292" y2="289.589" stroke="black" stroke-opacity="0.03"/>
<line x1="334.891" y1="0.273972" x2="334.891" y2="289.589" stroke="black" stroke-opacity="0.03"/>
<line x1="346.575" y1="12.8288" y2="12.8288" stroke="black" stroke-opacity="0.03"/>
<line x1="346.575" y1="24.8836" y2="24.8836" stroke="black" stroke-opacity="0.03"/>
<line x1="346.575" y1="36.9384" y2="36.9384" stroke="black" stroke-opacity="0.03"/>
<line x1="346.575" y1="48.9931" y2="48.9931" stroke="black" stroke-opacity="0.03"/>
<line x1="346.575" y1="61.0479" y2="61.0479" stroke="black" stroke-opacity="0.03"/>
<line x1="346.575" y1="73.1027" y2="73.1027" stroke="black" stroke-opacity="0.03"/>
<line x1="346.575" y1="85.1575" y2="85.1575" stroke="black" stroke-opacity="0.03"/>
<line x1="346.575" y1="97.2123" y2="97.2123" stroke="black" stroke-opacity="0.03"/>
<line x1="346.575" y1="109.267" y2="109.267" stroke="black" stroke-opacity="0.03"/>
<line x1="346.575" y1="121.322" y2="121.322" stroke="black" stroke-opacity="0.03"/>
<line x1="346.575" y1="133.377" y2="133.377" stroke="black" stroke-opacity="0.03"/>
<line x1="346.575" y1="145.432" y2="145.432" stroke="black" stroke-opacity="0.03"/>
<line x1="346.575" y1="157.486" y2="157.486" stroke="black" stroke-opacity="0.03"/>
<line x1="346.575" y1="169.541" y2="169.541" stroke="black" stroke-opacity="0.03"/>
<line x1="346.575" y1="181.596" y2="181.596" stroke="black" stroke-opacity="0.03"/>
<line x1="346.575" y1="193.651" y2="193.651" stroke="black" stroke-opacity="0.03"/>
<line x1="346.575" y1="205.705" y2="205.705" stroke="black" stroke-opacity="0.03"/>
<line x1="346.575" y1="217.76" y2="217.76" stroke="black" stroke-opacity="0.03"/>
<line x1="346.575" y1="229.815" y2="229.815" stroke="black" stroke-opacity="0.03"/>
<line x1="346.575" y1="241.87" y2="241.87" stroke="black" stroke-opacity="0.03"/>
<line x1="346.575" y1="253.925" y2="253.925" stroke="black" stroke-opacity="0.03"/>
<line x1="346.575" y1="265.979" y2="265.979" stroke="black" stroke-opacity="0.03"/>
<line x1="346.575" y1="278.034" y2="278.034" stroke="black" stroke-opacity="0.03"/>
</svg>
